#define 410ff5a50370491bcc36d99dd0a2db03_width 32
#define 410ff5a50370491bcc36d99dd0a2db03_height 32
static char 410ff5a50370491bcc36d99dd0a2db03_bits[] = {
  0x00, 0x00, 0x00, 0x00, 0x00, 0x00, 0x00, 0x00, 0x00, 0x00, 0x00, 0x00, 
  0x01, 0x00, 0x00, 0x80, 0x01, 0x00, 0x00, 0x80, 0x01, 0x00, 0x00, 0x80, 
  0x01, 0x00, 0x00, 0x80, 0xFF, 0xFF, 0xFF, 0xFF, 0x01, 0x00, 0x00, 0x80, 
  0x01, 0x00, 0x70, 0x80, 0x01, 0x00, 0x88, 0x80, 0x01, 0x00, 0x88, 0x80, 
  0x01, 0x00, 0x88, 0x80, 0x01, 0x00, 0x70, 0x80, 0x01, 0x00, 0x00, 0x80, 
  0xE1, 0x03, 0x00, 0x8C, 0xC1, 0x07, 0x00, 0x92, 0x81, 0x1F, 0x00, 0x92, 
  0xC5, 0x30, 0x00, 0x8C, 0x2D, 0x58, 0x00, 0x80, 0x15, 0x98, 0x00, 0x80, 
  0x05, 0x80, 0x00, 0x80, 0x15, 0x80, 0x80, 0x81, 0x2D, 0x40, 0x80, 0x81, 
  0xC5, 0x30, 0x00, 0x80, 0x81, 0x1F, 0x00, 0x80, 0x02, 0x00, 0x00, 0x42, 
  0x0C, 0x00, 0x00, 0x30, 0xF0, 0xFF, 0xFF, 0x0F, 0x00, 0x00, 0x00, 0x00, 
  0x00, 0x00, 0x00, 0x00, 0x00, 0x00, 0x00, 0x00, };
