#define 312e3683b4fa43ac8d788c9f27dd3353_width 13
#define 312e3683b4fa43ac8d788c9f27dd3353_height 13
static char 312e3683b4fa43ac8d788c9f27dd3353_bits[] = {
  0xC0, 0x03, 0x60, 0x07, 0x30, 0x0F, 0x90, 0x0F, 0xF0, 0x0F, 0xF0, 0x0F, 
  0xE0, 0x07, 0xC0, 0x03, 0x1C, 0x00, 0x36, 0x00, 0x3A, 0x00, 0x3E, 0x00, 
  0x1C, 0x00, };
