#define 53fd34de30754882ea048f2766eec6f6_width 48
#define 53fd34de30754882ea048f2766eec6f6_height 30
static char 53fd34de30754882ea048f2766eec6f6_bits[] = {
  0x0E, 0x00, 0x00, 0x00, 0x03, 0x00, 0x19, 0x00, 0x00, 0x80, 0x06, 0x00, 
  0x19, 0x00, 0x01, 0x80, 0x07, 0x00, 0x1F, 0x80, 0x02, 0x00, 0x13, 0x00, 
  0x0E, 0x00, 0x01, 0x00, 0x28, 0x00, 0x00, 0x00, 0x00, 0x00, 0x10, 0x00, 
  0x00, 0x00, 0x00, 0x00, 0x00, 0x07, 0x00, 0x00, 0x08, 0x00, 0x82, 0x02, 
  0x00, 0x00, 0x00, 0x00, 0xE0, 0x01, 0x30, 0x00, 0x00, 0x00, 0x18, 0x86, 
  0x68, 0x00, 0x00, 0x00, 0x24, 0xD8, 0x78, 0x00, 0x00, 0x00, 0x52, 0xA0, 
  0x30, 0x00, 0x02, 0x00, 0x22, 0xA0, 0x00, 0x00, 0x00, 0x00, 0x04, 0xD8, 
  0x02, 0x00, 0x00, 0x00, 0x18, 0x86, 0x05, 0x00, 0x00, 0x00, 0xE0, 0x03, 
  0x82, 0x0F, 0x00, 0x00, 0x00, 0x06, 0x60, 0x70, 0x08, 0x30, 0x00, 0x0C, 
  0x19, 0x80, 0x01, 0x28, 0x00, 0x00, 0xC4, 0x00, 0x06, 0x24, 0x00, 0x00, 
  0xA2, 0x01, 0x38, 0x13, 0x00, 0x00, 0xE2, 0x01, 0xC0, 0x20, 0x00, 0x00, 
  0xC1, 0x00, 0x00, 0x10, 0x00, 0x00, 0x01, 0x00, 0x00, 0x20, 0x00, 0x00, 
  0x02, 0x09, 0xC0, 0x10, 0x00, 0x00, 0x02, 0x12, 0x38, 0x23, 0x00, 0x00, 
  0x04, 0x1C, 0x06, 0x24, 0x00, 0x00, 0x18, 0x80, 0x01, 0x28, 0x00, 0x00, 
  0x60, 0x70, 0x00, 0x30, 0x00, 0x00, 0x80, 0x0F, 0x00, 0x00, 0x00, 0x00, 
  };
