#define 9348cbd62ff1426ee435315ef1c73f4d_width 7
#define 9348cbd62ff1426ee435315ef1c73f4d_height 4
static char 9348cbd62ff1426ee435315ef1c73f4d_bits[] = {
  0x7F, 0x3E, 0x1C, 0x08, };
