#define 28b831a04f794642a75cd854c4f85d34_width 13
#define 28b831a04f794642a75cd854c4f85d34_height 13
static char 28b831a04f794642a75cd854c4f85d34_bits[] = {
  0xE0, 0x00, 0x10, 0x01, 0x10, 0x01, 0xA0, 0x00, 0xE6, 0x0C, 0x59, 0x1F, 
  0xB1, 0x1F, 0x59, 0x1F, 0xE6, 0x0C, 0xA0, 0x00, 0x10, 0x01, 0x10, 0x01, 
  0xE0, 0x00, };
