#define d6dec3a9776046a5db1e04c68c1822ce_width 13
#define d6dec3a9776046a5db1e04c68c1822ce_height 13
static char d6dec3a9776046a5db1e04c68c1822ce_bits[] = {
  0xE0, 0x00, 0x10, 0x01, 0x10, 0x01, 0xA0, 0x00, 0xE6, 0x0C, 0x59, 0x13, 
  0xB1, 0x11, 0x59, 0x13, 0xE6, 0x0C, 0xE0, 0x00, 0xF0, 0x01, 0xF0, 0x01, 
  0xE0, 0x00, };
