#define cde23732b0d249b08036d23292e9e248_width 13
#define cde23732b0d249b08036d23292e9e248_height 13
static char cde23732b0d249b08036d23292e9e248_bits[] = {
  0xE0, 0x00, 0xF0, 0x01, 0xF0, 0x01, 0xE0, 0x00, 0xE6, 0x0C, 0x59, 0x13, 
  0xB1, 0x11, 0x59, 0x13, 0xE6, 0x0C, 0xA0, 0x00, 0x10, 0x01, 0x10, 0x01, 
  0xE0, 0x00, };
