#define 15152314cf184a3585265639fdeb2231_width 13
#define 15152314cf184a3585265639fdeb2231_height 13
static char 15152314cf184a3585265639fdeb2231_bits[] = {
  0xE0, 0x00, 0x10, 0x01, 0x10, 0x01, 0xA0, 0x00, 0xE6, 0x0C, 0x5F, 0x13, 
  0xBF, 0x11, 0x5F, 0x13, 0xE6, 0x0C, 0xA0, 0x00, 0x10, 0x01, 0x10, 0x01, 
  0xE0, 0x00, };
