#define bbb6f55f13044be4b73ec8b06c76cb3a_width 32
#define bbb6f55f13044be4b73ec8b06c76cb3a_height 32
static char bbb6f55f13044be4b73ec8b06c76cb3a_bits[] = {
  0x00, 0x00, 0xE0, 0x03, 0x00, 0x00, 0x20, 0x02, 0x00, 0x00, 0xA0, 0x02, 
  0x01, 0x00, 0xA0, 0x82, 0x01, 0x00, 0xA0, 0x82, 0x01, 0x00, 0xA0, 0x82, 
  0x01, 0x00, 0xA0, 0x82, 0xFF, 0xFF, 0xAF, 0xFA, 0x01, 0x00, 0xA0, 0x82, 
  0x01, 0x00, 0xA0, 0x82, 0x01, 0x00, 0xA0, 0x82, 0x01, 0x00, 0xA0, 0x82, 
  0xE1, 0x03, 0xA0, 0x82, 0xC1, 0x07, 0xA0, 0x82, 0x81, 0x1F, 0xB8, 0x8E, 
  0xC5, 0x30, 0xD0, 0x85, 0x2D, 0x58, 0xA0, 0x82, 0x15, 0x98, 0x40, 0x81, 
  0x05, 0x80, 0x80, 0x80, 0x15, 0x80, 0x00, 0x80, 0x2D, 0x40, 0x00, 0x80, 
  0xC5, 0x30, 0x00, 0x80, 0x81, 0x1F, 0x00, 0x80, 0x01, 0x00, 0x00, 0x80, 
  0x01, 0x00, 0x00, 0x80, 0x03, 0x00, 0x00, 0x80, 0x02, 0x00, 0x00, 0x40, 
  0x0C, 0x00, 0x00, 0x30, 0xF0, 0xFF, 0xFF, 0x0F, 0x00, 0x00, 0x00, 0x00, 
  0x00, 0x00, 0x00, 0x00, 0x00, 0x00, 0x00, 0x00, };
