#define 4f5878f85b28441aefcc1401da393edf_width 32
#define 4f5878f85b28441aefcc1401da393edf_height 32
static char 4f5878f85b28441aefcc1401da393edf_bits[] = {
  0x00, 0xE0, 0x07, 0x00, 0x00, 0x18, 0x18, 0x00, 0x00, 0x0C, 0x30, 0x00, 
  0x01, 0x06, 0x60, 0x80, 0x01, 0x02, 0x40, 0x80, 0x01, 0x01, 0x80, 0x80, 
  0x01, 0x01, 0x80, 0x80, 0x7F, 0x01, 0x83, 0xFE, 0x01, 0x41, 0x85, 0x80, 
  0x01, 0xA1, 0x84, 0x80, 0x01, 0x21, 0x84, 0x80, 0x01, 0x22, 0x44, 0x80, 
  0x01, 0x26, 0x64, 0x80, 0x01, 0x4C, 0x32, 0x80, 0x01, 0x58, 0x1A, 0x80, 
  0x01, 0xF0, 0x0F, 0x80, 0x01, 0x10, 0x08, 0x80, 0x01, 0x10, 0x0E, 0x80, 
  0x01, 0xD0, 0x09, 0x80, 0x01, 0x10, 0x0E, 0x80, 0x01, 0xD0, 0x09, 0x80, 
  0x01, 0x10, 0x08, 0x80, 0x01, 0xF0, 0x0F, 0x80, 0x01, 0x40, 0x02, 0x80, 
  0x01, 0x80, 0x01, 0x80, 0x03, 0x00, 0x00, 0xC0, 0x02, 0x00, 0x00, 0x40, 
  0x0C, 0x00, 0x00, 0x30, 0xF0, 0xFF, 0xFF, 0x0F, 0x00, 0x00, 0x00, 0x00, 
  0x00, 0x00, 0x00, 0x00, 0x00, 0x00, 0x00, 0x00, };
