#define 8a07ffd49b1b4ee6ee0bfaf2cfc139d2_width 13
#define 8a07ffd49b1b4ee6ee0bfaf2cfc139d2_height 13
static char 8a07ffd49b1b4ee6ee0bfaf2cfc139d2_bits[] = {
  0xF0, 0x01, 0x08, 0x02, 0x04, 0x04, 0xA4, 0x04, 0x54, 0x05, 0x14, 0x05, 
  0xA4, 0x04, 0xA8, 0x02, 0xF0, 0x01, 0xE0, 0x00, 0xE0, 0x00, 0xE0, 0x00, 
  0xE0, 0x00, };
