#define 63b8ea83f04749afc1eae94530f7b07c_width 13
#define 63b8ea83f04749afc1eae94530f7b07c_height 13
static char 63b8ea83f04749afc1eae94530f7b07c_bits[] = {
  0xF1, 0x11, 0xFA, 0x0B, 0xFC, 0x07, 0xFC, 0x07, 0x5D, 0x17, 0xAC, 0x06, 
  0xEC, 0x06, 0x58, 0x03, 0x52, 0x09, 0xE1, 0x10, 0xE0, 0x00, 0xE0, 0x00, 
  0xE0, 0x00, };
