#define 70e40adbcaec4b238a54c9b87ee43d28_width 32
#define 70e40adbcaec4b238a54c9b87ee43d28_height 32
static char 70e40adbcaec4b238a54c9b87ee43d28_bits[] = {
  0x80, 0x03, 0x00, 0x00, 0x40, 0x04, 0x00, 0x00, 0x40, 0x0C, 0x00, 0x00, 
  0x41, 0x04, 0x00, 0x80, 0x41, 0x0C, 0x00, 0x80, 0x41, 0x05, 0x00, 0x80, 
  0x41, 0x0D, 0x00, 0x80, 0x5F, 0xE5, 0xFF, 0xFF, 0x41, 0x0D, 0x00, 0x80, 
  0x41, 0x05, 0x00, 0x80, 0x41, 0x0D, 0x00, 0x80, 0x41, 0x05, 0x00, 0x80, 
  0x61, 0x0D, 0xC0, 0x83, 0xB1, 0x1B, 0xE0, 0x81, 0x51, 0x16, 0xF8, 0x80, 
  0x51, 0x16, 0x06, 0xA3, 0xD1, 0x17, 0x0D, 0xB4, 0xB1, 0x9B, 0x0C, 0xA8, 
  0x61, 0x8C, 0x00, 0xA0, 0xC1, 0x87, 0x00, 0xA8, 0x01, 0x00, 0x01, 0xB4, 
  0x01, 0x00, 0x06, 0xA3, 0x01, 0x00, 0xF8, 0x83, 0x01, 0x00, 0x80, 0x87, 
  0x01, 0x00, 0x00, 0x8F, 0x03, 0x00, 0x00, 0xC0, 0x02, 0x00, 0x00, 0x40, 
  0x0C, 0x00, 0x00, 0x30, 0xF0, 0xFF, 0xFF, 0x0F, 0x00, 0x00, 0x00, 0x00, 
  0x00, 0x00, 0x00, 0x00, 0x00, 0x00, 0x00, 0x00, };
