#define 3cc315b8bcef434ff8cc461d8dd50edf_width 7
#define 3cc315b8bcef434ff8cc461d8dd50edf_height 4
static char 3cc315b8bcef434ff8cc461d8dd50edf_bits[] = {
  0x08, 0x1C, 0x3E, 0x7F, };
