#define af7cf4b002334b32b4cf7a70088c61cc_width 13
#define af7cf4b002334b32b4cf7a70088c61cc_height 13
static char af7cf4b002334b32b4cf7a70088c61cc_bits[] = {
  0x00, 0x00, 0x00, 0x00, 0x01, 0x10, 0x01, 0x10, 0xFF, 0x1F, 0x01, 0x10, 
  0x45, 0x14, 0x01, 0x10, 0x11, 0x11, 0x01, 0x10, 0x45, 0x14, 0x01, 0x10, 
  0xFE, 0x0F, };
